<svg width="104" height="32" viewBox="0 0 104 32" fill="none" xmlns="http://www.w3.org/2000/svg">
<g clip-path="url(#clip0_8_628)">
<path fill-rule="evenodd" clip-rule="evenodd" d="M64.3991 25.0249C58.4136 29.5732 49.738 31.9999 42.2684 31.9999C31.7949 31.9999 22.3661 28.0063 15.2328 21.3641C14.6724 20.8417 15.1745 20.1299 15.847 20.5367C23.5453 25.1543 33.0638 27.9323 42.8961 27.9323C49.5273 27.9323 56.822 26.5179 63.5293 23.5827C64.5426 23.139 65.39 24.2668 64.3991 25.0249Z" fill="#FF9900"/>
<path fill-rule="evenodd" clip-rule="evenodd" d="M66.8878 22.0898C66.1256 21.0821 61.8304 21.6137 59.9025 21.8494C59.3152 21.9234 59.2255 21.3964 59.7545 21.0174C63.1755 18.5352 68.7888 19.2517 69.4434 20.0837C70.098 20.9203 69.273 26.7213 66.0584 29.49C65.5652 29.9153 65.0944 29.6888 65.3141 29.1249C66.0359 27.2667 67.6545 23.1021 66.8878 22.0898Z" fill="#FF9900"/>
<path fill-rule="evenodd" clip-rule="evenodd" d="M60.0369 3.4944V1.08157C60.0369 0.716416 60.3059 0.471436 60.6287 0.471436H71.1067C71.443 0.471436 71.712 0.721038 71.712 1.08157V3.14773C71.7075 3.4944 71.425 3.94738 70.9229 4.66383L65.4933 12.6557C67.5109 12.6049 69.6406 12.9146 71.4699 13.9777C71.8823 14.2181 71.9944 14.5694 72.0258 14.916V17.4906C72.0258 17.8419 71.6492 18.2533 71.2546 18.0407C68.031 16.2981 63.7492 16.1086 60.1848 18.0592C59.8216 18.2626 59.4406 17.8558 59.4406 17.5045V15.0593C59.4406 14.6664 59.445 13.9962 59.8261 13.3999L66.1165 4.09992H60.6421C60.3059 4.09992 60.0369 3.85494 60.0369 3.4944Z" fill="black"/>
<path fill-rule="evenodd" clip-rule="evenodd" d="M21.8147 18.5492H18.6269C18.322 18.5261 18.0799 18.2904 18.0575 17.99V1.1233C18.0575 0.785874 18.331 0.517781 18.6717 0.517781H21.6443C21.9537 0.531638 22.2003 0.776627 22.2227 1.0817V3.28652H22.281C23.0566 1.15565 24.5138 0.161865 26.4776 0.161865C28.4727 0.161865 29.7191 1.15565 30.6158 3.28652C31.387 1.15565 33.1401 0.161865 35.0187 0.161865C36.3548 0.161865 37.8164 0.730404 38.7086 2.00615C39.7174 3.42519 39.5112 5.48672 39.5112 7.29403L39.5067 17.9391C39.5067 18.2765 39.2332 18.5492 38.8924 18.5492H35.7091C35.3908 18.5261 35.1352 18.2627 35.1352 17.9391V8.99964C35.1352 8.28781 35.198 6.51286 35.0456 5.83801C34.8079 4.70556 34.0951 4.38662 33.1715 4.38662C32.4003 4.38662 31.5933 4.91818 31.266 5.76868C30.9387 6.61918 30.97 8.04283 30.97 8.99964V17.9391C30.97 18.2765 30.6966 18.5492 30.3558 18.5492H27.1725C26.8497 18.5261 26.5986 18.2627 26.5986 17.9391L26.5941 8.99964C26.5941 7.11838 26.8945 4.34964 24.6303 4.34964C22.3393 4.34964 22.4289 7.04904 22.4289 8.99964V17.9391C22.4289 18.2765 22.1554 18.5492 21.8147 18.5492" fill="black"/>
<path fill-rule="evenodd" clip-rule="evenodd" d="M80.7326 0.161865C85.4627 0.161865 88.0228 4.34964 88.0228 9.6745C88.0228 14.8191 85.1937 18.9005 80.7326 18.9005C76.0877 18.9005 73.559 14.7128 73.559 9.49423C73.559 4.24333 76.1191 0.161865 80.7326 0.161865ZM80.7595 3.60546C78.4101 3.60546 78.2622 6.90576 78.2622 8.96267C78.2622 11.0242 78.2308 15.4246 80.7326 15.4246C83.203 15.4246 83.3196 11.8747 83.3196 9.71147C83.3196 8.28782 83.2613 6.58682 82.8444 5.23712C82.4857 4.06306 81.7728 3.60546 80.7595 3.60546Z" fill="black"/>
<path fill-rule="evenodd" clip-rule="evenodd" d="M94.1564 18.5492H90.9821C90.6637 18.5261 90.4082 18.2627 90.4082 17.9391L90.4037 1.06783C90.4306 0.758138 90.6951 0.517781 91.0179 0.517781H93.9726C94.2505 0.531638 94.4792 0.725783 94.542 0.989253V3.56848H94.6003C95.4925 1.26197 96.7434 0.161865 98.9448 0.161865C100.375 0.161865 101.769 0.693427 102.666 2.14944C103.5 3.49914 103.5 5.76868 103.5 7.40034V18.0177C103.464 18.3135 103.2 18.5492 102.886 18.5492H99.6891C99.3976 18.5261 99.1555 18.3043 99.1241 18.0177V8.85635C99.1241 7.01207 99.3304 4.31266 97.129 4.31266C96.3533 4.31266 95.6404 4.84885 95.2862 5.66236C94.8379 6.69313 94.7796 7.71928 94.7796 8.85635V17.9391C94.7751 18.2765 94.4971 18.5492 94.1564 18.5492" fill="black"/>
<path fill-rule="evenodd" clip-rule="evenodd" d="M51.684 10.4926C51.684 11.7729 51.7154 12.8407 51.0877 13.9777C50.5811 14.9022 49.774 15.4707 48.8818 15.4707C47.6578 15.4707 46.9404 14.5093 46.9404 13.0903C46.9404 10.2892 49.375 9.78073 51.684 9.78073V10.4926ZM54.8987 18.5029C54.688 18.6971 54.3831 18.7109 54.1455 18.5815C53.0873 17.6756 52.8946 17.2549 52.3162 16.3906C50.5676 18.2302 49.3257 18.7803 47.0615 18.7803C44.3759 18.7803 42.291 17.0747 42.291 13.6588C42.291 10.9918 43.6899 9.17521 45.6895 8.28773C47.4202 7.50194 49.8368 7.36328 51.684 7.14603V6.72078C51.684 5.93962 51.7423 5.01516 51.2939 4.34031C50.9084 3.73479 50.1641 3.48519 49.505 3.48519C48.29 3.48519 47.2094 4.12769 46.9449 5.4589C46.8911 5.75473 46.6804 6.04593 46.389 6.0598L43.2998 5.71775C43.0398 5.65766 42.7483 5.44041 42.8246 5.02903C43.533 1.16482 46.9225 0 49.9534 0C51.5047 0 53.5312 0.42525 54.7552 1.63628C56.3065 3.12928 56.1586 5.12148 56.1586 7.28932V12.4108C56.1586 13.95 56.7773 14.6249 57.3601 15.4569C57.5619 15.7527 57.6067 16.1086 57.3467 16.3305C56.6966 16.8898 55.5398 17.9298 54.9032 18.5122L54.8987 18.5029" fill="black"/>
<path fill-rule="evenodd" clip-rule="evenodd" d="M9.89298 10.4928C9.89298 11.7732 9.92437 12.8409 9.29667 13.978C8.79003 14.9024 7.98748 15.471 7.09078 15.471C5.86678 15.471 5.1539 14.5095 5.1539 13.0905C5.1539 10.2894 7.58845 9.78097 9.89298 9.78097V10.4928ZM13.1077 18.5032C12.8969 18.6973 12.5921 18.7112 12.3544 18.5818C11.2963 17.6758 11.108 17.2552 10.5252 16.3908C8.77658 18.2305 7.53913 18.7805 5.27047 18.7805C2.58932 18.7805 0.5 17.0749 0.5 13.6591C0.5 10.992 1.90334 9.17545 3.89851 8.28798C5.62915 7.50219 8.04577 7.36352 9.89298 7.14628V6.72103C9.89298 5.93986 9.95127 5.01541 9.5074 4.34056C9.11733 3.73504 8.37307 3.48544 7.71847 3.48544C6.50344 3.48544 5.41843 4.12793 5.1539 5.45914C5.10009 5.75497 4.88937 6.04617 4.60242 6.06004L1.50879 5.71799C1.24875 5.6579 0.961802 5.44065 1.03354 5.02928C1.74642 1.16506 5.13148 0.000244141 8.16234 0.000244141C9.71364 0.000244141 11.7402 0.425494 12.9642 1.63653C14.5155 3.12952 14.3675 5.12172 14.3675 7.28956V12.411C14.3675 13.9503 14.9863 14.6251 15.5691 15.4571C15.7754 15.7529 15.8202 16.1089 15.5602 16.3307C14.91 16.89 13.7533 17.93 13.1166 18.5124L13.1077 18.5032" fill="black"/>
</g>
<defs>
<clipPath id="clip0_8_628">
<rect width="103" height="32" fill="white" transform="translate(0.5)"/>
</clipPath>
</defs>
</svg>
