<svg width="99" height="34" viewBox="0 0 99 34" fill="none" xmlns="http://www.w3.org/2000/svg">
<g clip-path="url(#clip0_8_620)">
<path fill-rule="evenodd" clip-rule="evenodd" d="M86.876 15.8408L80.6388 26.6751L75.3173 26.6963L86.876 6.30378L98.3915 26.6963H92.9857L86.876 15.8397V15.8408ZM70.0811 21.9799H76.0412L73.274 26.6963H65.5057L65.5268 20.9535V6.42916H70.1033L70.0822 21.9799H70.0811ZM53.7352 6.43022C59.4181 6.45147 64.0157 10.9777 63.9946 16.5728C63.9735 22.1478 59.376 26.6751 53.692 26.6751C48.0301 26.6538 43.4325 22.1276 43.4325 16.5314C43.4536 10.9565 48.0512 6.43022 53.7352 6.43022ZM53.7141 21.9597C56.7574 21.9597 59.2042 19.5489 59.2042 16.5728C59.2263 13.5978 56.7574 11.1658 53.7352 11.1658C50.7119 11.1445 48.2429 13.5766 48.2429 16.5527C48.2219 19.5277 50.6908 21.9597 53.713 21.9597H53.7141ZM34.9613 14.9632C34.8981 14.1238 34.6842 13.0135 34.3649 11.9457C33.7079 9.74004 32.5657 7.71235 31.0234 6.01372C30.2141 5.13397 29.2994 4.31585 27.9359 3.35216C26.8964 2.83493 25.8744 2.28283 24.8715 1.69678C24.2119 1.3196 23.4237 0.857409 22.3815 0.522722C21.1458 0.228624 19.8826 0.0672867 18.6132 0.0414094C17.3803 -0.00109055 16.1443 0.105159 14.9525 0.334659C13.6964 0.543972 12.6531 0.878659 11.2695 1.21441C8.13987 2.57653 5.71411 4.63035 3.62766 7.35566C-3.65174 17.6035 2.92585 31.96 15.08 33.6568C17.0811 33.9298 19.0821 33.8247 20.9758 33.3848L22.3172 33.0288C22.3594 33.0076 22.4236 32.9863 22.4658 32.9863L23.999 32.3998C24.0833 32.3573 24.1476 32.3361 24.2329 32.2947L24.8715 32.0014C26.0968 31.3917 27.2469 30.6393 28.2984 29.7595C27.3412 30.6364 26.3003 31.4155 25.1908 32.0853L25.254 32.1278C25.468 32.0641 25.6587 32.0014 25.8715 31.96C25.8715 31.96 25.8715 32.2947 25.8294 32.232C25.489 32.4838 26.0212 32.2532 26.7019 31.8962C27.3837 31.5403 28.0434 31.0993 28.6387 30.5968C29.5123 29.8637 30.2784 29.0668 31.3638 27.7684C32.4702 25.8187 33.8549 24.1208 34.4934 21.8365C34.7063 21.2287 34.897 20.5168 35.0256 19.7827C35.152 19.0495 35.2384 18.2952 35.2384 17.5195C35.2174 16.7439 35.132 15.947 34.9613 14.9632ZM19.2097 32.1905C22.9347 31.603 26.0633 29.529 28.6177 26.6995C29.3205 25.6721 29.8737 24.7286 30.5545 23.7022C31.4059 21.6059 31.3427 19.7412 31.6188 18.4216C31.9602 16.031 31.1509 14.1036 30.4702 12.0498C29.4269 9.66022 28.0434 7.87947 25.6165 6.4961C19.4857 2.68172 11.142 3.74953 7.16198 9.45091C7.1409 9.45091 7.03342 9.59754 6.82056 9.89079C7.0977 8.71779 7.80056 8.0261 8.50237 7.3546C10.5888 5.63653 13.0156 4.27335 15.7828 3.60397C18.9125 3.26822 22.019 3.60397 24.8072 4.9661C28.9802 7.3546 31.7473 11.1073 32.4491 15.5486V19.6573C31.5766 26.385 25.8294 31.4988 19.2097 32.1905ZM34.5145 16.8905C34.3649 7.04116 24.6376 0.397347 15.1653 1.73928C12.3981 2.42991 9.37488 3.81328 7.2252 5.74172C6.18198 6.43235 5.69303 7.7116 4.64981 8.73797C0.476904 14.8792 1.20189 22.7385 6.39484 27.5177C7.06096 28.1817 7.77222 28.798 8.52344 29.3622C4.18194 26.741 2.22299 22.7789 1.54226 17.9605C1.54226 16.2413 1.88262 14.5435 2.24407 12.8254C4.67194 5.30078 12.3128 -0.168966 20.6365 1.21441C22.02 1.55016 23.4036 1.9061 24.8094 2.24185C26.5544 2.93247 28.2783 3.95991 29.6619 5.3231C31.0455 6.68416 32.0888 8.40329 33.132 10.1001C33.8338 11.4633 34.1752 13.1813 34.5156 14.5435C34.5788 15.3191 34.5788 16.116 34.5156 16.8916L34.5145 16.8905Z" fill="black"/>
<path fill-rule="evenodd" clip-rule="evenodd" d="M25.8724 17.0381C25.8724 21.2722 22.3392 24.7094 17.9755 24.7094C13.6129 24.7094 10.0786 21.2722 10.0786 17.0381C10.0786 12.8051 13.6119 9.36792 17.9755 9.36792C22.3392 9.36792 25.8724 12.8051 25.8724 17.0392V17.0381Z" fill="white"/>
<path fill-rule="evenodd" clip-rule="evenodd" d="M25.9157 15.7386C25.8093 15.1521 25.6386 14.691 25.4689 14.0418C24.7871 12.6159 23.7871 11.5056 22.4667 10.5621C17.5288 7.27262 10.7384 10.4367 10.0155 16.0542C9.73939 18.2759 10.5266 20.4136 11.9312 22.0488C11.5055 21.6079 11.0376 21.1478 10.7183 20.6229L10.6762 20.6654C10.7183 20.7908 10.889 20.8747 10.9312 21.0001C10.9312 21.0001 10.7605 21.0001 10.8037 20.9789C10.6762 20.8333 10.7826 21.0639 10.9733 21.3773C11.1441 21.6918 11.3569 21.9861 11.6119 22.2581C11.9744 22.6566 12.3569 23.0125 12.9955 23.4949C13.9334 23.9762 14.7627 24.6052 15.8481 24.8984C16.1463 24.9834 16.4866 25.0663 16.8281 25.129C17.1895 25.1927 17.5299 25.214 17.9134 25.214C18.2749 25.214 18.6584 25.1715 19.1263 25.0865C19.6088 25.0292 20.0857 24.9315 20.5521 24.7943C21.5938 24.4781 22.5534 23.9339 23.3624 23.2006C23.7671 22.8244 24.3424 22.3421 24.7882 21.7131C25.1507 21.0012 25.1928 20.6442 25.3635 20.3297C25.5332 20.0152 25.7461 19.6592 25.8957 19.1769C26.0177 18.6046 26.0889 18.0225 26.1086 17.4376C26.0875 16.8511 26.0453 16.2847 25.9168 15.7397L25.9157 15.7386ZM20.8492 11.8414C21.5732 12.26 21.6796 12.3227 21.296 12.0507C21.8503 12.1761 22.1907 12.4906 22.531 12.8051C23.3614 13.7486 24.0421 14.8589 24.3825 16.1371C24.5743 17.5831 24.4246 19.0292 23.8082 20.3084C22.7017 22.2571 20.9346 23.5565 18.827 23.9124C18.5931 23.9124 18.3381 23.9124 18.1031 23.9337C18.6995 23.8285 19.0831 23.4513 20.1685 23.0529C21.3382 22.6342 22.6585 20.6856 23.2982 19.553C25.1707 16.4717 22.9567 13.6221 20.8492 11.8414ZM16.8481 23.9539C13.613 23.6192 11.1219 20.9576 10.7816 17.8764C11.0787 19.5955 12.1009 20.9151 13.4845 22.0892C13.9745 22.4037 14.6973 22.8436 15.1873 23.1581C16.0177 23.4726 16.5067 23.8083 17.316 23.9549H16.8481V23.9539ZM25.5532 18.3587C25.4057 19.009 25.2561 19.6369 25.1064 20.2872C24.7871 21.0841 24.3193 21.9011 23.6807 22.5503C23.0421 23.2006 22.2328 23.7031 21.4246 24.1855C20.786 24.5202 19.9767 24.6881 19.317 24.8549C18.9335 24.8974 18.4867 24.7295 18.1031 24.7093C22.8292 24.5829 26.0643 20.1618 25.3625 15.7811C25.0211 14.5029 24.3403 13.3916 23.51 12.2812C23.1696 11.7989 22.5089 11.5056 22.02 11.0232C19.061 9.15856 15.1452 9.53575 12.9102 11.988C12.5968 12.3102 12.3049 12.6531 12.0366 13.0144C13.2295 11.2538 15.1452 10.0181 17.4435 9.66112C18.2527 9.63987 19.0831 9.78756 19.8914 9.93419C23.4678 11.0232 26.1286 14.5029 25.5532 18.3598V18.3587Z" fill="#D7DF23"/>
</g>
<defs>
<clipPath id="clip0_8_620">
<rect width="98" height="34" fill="white" transform="translate(0.5)"/>
</clipPath>
</defs>
</svg>
