<svg width="167" height="52" viewBox="0 0 167 52" fill="none" xmlns="http://www.w3.org/2000/svg">
<path d="M27.9686 32V22.056H24.1366V20.48H33.4726V22.056H29.6406V32H27.9686ZM38.4839 21.912V20.312H40.0839V21.912H38.4839ZM35.2599 21.912V20.312H36.8599V21.912H35.2599ZM37.2119 32.232C36.6146 32.232 36.1133 32.136 35.7079 31.944C35.3026 31.752 34.9719 31.5013 34.7159 31.192C34.4653 30.8773 34.2733 30.536 34.1399 30.168C34.0066 29.8 33.9159 29.44 33.8679 29.088C33.8199 28.736 33.7959 28.4267 33.7959 28.16V23.36H35.4919V27.608C35.4919 27.944 35.5186 28.2907 35.5719 28.648C35.6306 29 35.7373 29.328 35.8919 29.632C36.0519 29.936 36.2733 30.1813 36.5559 30.368C36.8439 30.5547 37.2173 30.648 37.6759 30.648C37.9746 30.648 38.2573 30.6 38.5239 30.504C38.7906 30.4027 39.0226 30.2427 39.2199 30.024C39.4226 29.8053 39.5799 29.5173 39.6919 29.16C39.8093 28.8027 39.8679 28.368 39.8679 27.856L40.9079 28.248C40.9079 29.032 40.7613 29.7253 40.4679 30.328C40.1746 30.9253 39.7533 31.392 39.2039 31.728C38.6546 32.064 37.9906 32.232 37.2119 32.232ZM40.0679 32V29.504H39.8679V23.36H41.5559V32H40.0679ZM54.1517 32L54.1597 26.616C54.1597 25.992 53.9997 25.5067 53.6797 25.16C53.3597 24.808 52.9384 24.632 52.4157 24.632C52.0957 24.632 51.8024 24.7067 51.5357 24.856C51.2744 25 51.061 25.2187 50.8957 25.512C50.7357 25.8 50.6557 26.1627 50.6557 26.6L49.8477 26.192C49.837 25.584 49.965 25.0507 50.2317 24.592C50.5037 24.1333 50.8717 23.7787 51.3357 23.528C51.7997 23.272 52.3197 23.144 52.8957 23.144C53.829 23.144 54.5517 23.424 55.0637 23.984C55.5757 24.544 55.8317 25.288 55.8317 26.216L55.8237 32H54.1517ZM43.7917 32V23.36H45.2797V25.856H45.4717V32H43.7917ZM48.9757 32L48.9837 26.648C48.9837 26.0187 48.8237 25.5253 48.5037 25.168C48.189 24.8107 47.765 24.632 47.2317 24.632C46.7037 24.632 46.277 24.8133 45.9517 25.176C45.6317 25.5387 45.4717 26.0133 45.4717 26.6L44.6717 26.088C44.6717 25.5227 44.8077 25.0187 45.0797 24.576C45.3517 24.1333 45.7197 23.784 46.1837 23.528C46.6477 23.272 47.173 23.144 47.7597 23.144C48.373 23.144 48.8957 23.2747 49.3277 23.536C49.7597 23.792 50.0877 24.152 50.3117 24.616C50.541 25.08 50.6557 25.6187 50.6557 26.232L50.6477 32H48.9757ZM62.4371 21.912V20.312H64.0371V21.912H62.4371ZM59.2131 21.912V20.312H60.8131V21.912H59.2131ZM61.1651 32.232C60.5677 32.232 60.0664 32.136 59.6611 31.944C59.2557 31.752 58.9251 31.5013 58.6691 31.192C58.4184 30.8773 58.2264 30.536 58.0931 30.168C57.9597 29.8 57.8691 29.44 57.8211 29.088C57.7731 28.736 57.7491 28.4267 57.7491 28.16V23.36H59.4451V27.608C59.4451 27.944 59.4717 28.2907 59.5251 28.648C59.5837 29 59.6904 29.328 59.8451 29.632C60.0051 29.936 60.2264 30.1813 60.5091 30.368C60.7971 30.5547 61.1704 30.648 61.6291 30.648C61.9277 30.648 62.2104 30.6 62.4771 30.504C62.7437 30.4027 62.9757 30.2427 63.1731 30.024C63.3757 29.8053 63.5331 29.5173 63.6451 29.16C63.7624 28.8027 63.8211 28.368 63.8211 27.856L64.8611 28.248C64.8611 29.032 64.7144 29.7253 64.4211 30.328C64.1277 30.9253 63.7064 31.392 63.1571 31.728C62.6077 32.064 61.9437 32.232 61.1651 32.232ZM64.0211 32V29.504H63.8211V23.36H65.5091V32H64.0211ZM73.8168 32V27.752C73.8168 27.416 73.7875 27.072 73.7288 26.72C73.6755 26.3627 73.5688 26.032 73.4088 25.728C73.2541 25.424 73.0328 25.1787 72.7448 24.992C72.4621 24.8053 72.0915 24.712 71.6328 24.712C71.3341 24.712 71.0515 24.7627 70.7848 24.864C70.5181 24.96 70.2835 25.1173 70.0808 25.336C69.8835 25.5547 69.7261 25.8427 69.6088 26.2C69.4968 26.5573 69.4408 26.992 69.4408 27.504L68.4008 27.112C68.4008 26.328 68.5475 25.6373 68.8408 25.04C69.1341 24.4373 69.5555 23.968 70.1048 23.632C70.6541 23.296 71.3181 23.128 72.0968 23.128C72.6941 23.128 73.1955 23.224 73.6008 23.416C74.0061 23.608 74.3341 23.8613 74.5848 24.176C74.8408 24.4853 75.0355 24.824 75.1688 25.192C75.3021 25.56 75.3928 25.92 75.4408 26.272C75.4888 26.624 75.5128 26.9333 75.5128 27.2V32H73.8168ZM67.7448 32V23.36H69.2408V25.856H69.4408V32H67.7448ZM82.1246 21.912V20.312H83.7246V21.912H82.1246ZM78.9006 21.912V20.312H80.5006V21.912H78.9006ZM80.8526 32.232C80.2552 32.232 79.7539 32.136 79.3486 31.944C78.9432 31.752 78.6126 31.5013 78.3566 31.192C78.1059 30.8773 77.9139 30.536 77.7806 30.168C77.6472 29.8 77.5566 29.44 77.5086 29.088C77.4606 28.736 77.4366 28.4267 77.4366 28.16V23.36H79.1326V27.608C79.1326 27.944 79.1592 28.2907 79.2126 28.648C79.2712 29 79.3779 29.328 79.5326 29.632C79.6926 29.936 79.9139 30.1813 80.1966 30.368C80.4846 30.5547 80.8579 30.648 81.3166 30.648C81.6152 30.648 81.8979 30.6 82.1646 30.504C82.4312 30.4027 82.6632 30.2427 82.8606 30.024C83.0632 29.8053 83.2206 29.5173 83.3326 29.16C83.4499 28.8027 83.5086 28.368 83.5086 27.856L84.5486 28.248C84.5486 29.032 84.4019 29.7253 84.1086 30.328C83.8152 30.9253 83.3939 31.392 82.8446 31.728C82.2952 32.064 81.6312 32.232 80.8526 32.232ZM83.7086 32V29.504H83.5086V23.36H85.1966V32H83.7086ZM95.3554 32.24C94.5821 32.24 93.8701 32.1067 93.2194 31.84C92.5688 31.568 92.0034 31.1733 91.5234 30.656C91.0434 30.1387 90.6701 29.5093 90.4034 28.768C90.1368 28.0267 90.0034 27.184 90.0034 26.24C90.0034 24.9973 90.2301 23.9307 90.6834 23.04C91.1368 22.144 91.7661 21.456 92.5714 20.976C93.3768 20.4907 94.3048 20.248 95.3554 20.248C96.7101 20.248 97.7901 20.5627 98.5954 21.192C99.4061 21.8213 99.9581 22.6907 100.251 23.8L98.5554 24.104C98.3208 23.416 97.9421 22.8667 97.4194 22.456C96.8968 22.0453 96.2408 21.8373 95.4514 21.832C94.6354 21.8267 93.9554 22.008 93.4114 22.376C92.8728 22.744 92.4674 23.2613 92.1954 23.928C91.9234 24.5893 91.7848 25.36 91.7794 26.24C91.7741 27.12 91.9074 27.8907 92.1794 28.552C92.4514 29.208 92.8594 29.72 93.4034 30.088C93.9528 30.456 94.6354 30.6427 95.4514 30.648C96.1074 30.6587 96.6701 30.5387 97.1394 30.288C97.6141 30.032 97.9901 29.6587 98.2674 29.168C98.5448 28.6773 98.7234 28.0747 98.8034 27.36H96.5634V26.016H100.579C100.59 26.112 100.598 26.24 100.603 26.4C100.609 26.5547 100.611 26.6533 100.611 26.696C100.611 27.7627 100.406 28.7147 99.9954 29.552C99.5848 30.3893 98.9874 31.048 98.2034 31.528C97.4194 32.0027 96.4701 32.24 95.3554 32.24ZM106.774 21.912V20.312H108.374V21.912H106.774ZM103.558 21.912V20.312H105.158V21.912H103.558ZM105.958 32.24C105.094 32.24 104.345 32.0453 103.71 31.656C103.075 31.2667 102.585 30.7307 102.238 30.048C101.897 29.36 101.726 28.568 101.726 27.672C101.726 26.7707 101.902 25.9787 102.254 25.296C102.606 24.608 103.099 24.0747 103.734 23.696C104.369 23.312 105.11 23.12 105.958 23.12C106.822 23.12 107.571 23.3147 108.206 23.704C108.841 24.0933 109.331 24.6293 109.678 25.312C110.025 25.9947 110.198 26.7813 110.198 27.672C110.198 28.5733 110.022 29.368 109.67 30.056C109.323 30.7387 108.833 31.2747 108.198 31.664C107.563 32.048 106.817 32.24 105.958 32.24ZM105.958 30.664C106.785 30.664 107.401 30.3867 107.806 29.832C108.217 29.272 108.422 28.552 108.422 27.672C108.422 26.7653 108.214 26.0427 107.798 25.504C107.387 24.9653 106.774 24.696 105.958 24.696C105.398 24.696 104.937 24.824 104.574 25.08C104.211 25.3307 103.942 25.68 103.766 26.128C103.59 26.5707 103.502 27.0853 103.502 27.672C103.502 28.5787 103.71 29.304 104.126 29.848C104.542 30.392 105.153 30.664 105.958 30.664ZM111.956 32V23.36H113.444V25.456L113.236 25.184C113.343 24.9067 113.481 24.6533 113.652 24.424C113.823 24.1893 114.02 23.9973 114.244 23.848C114.463 23.688 114.705 23.5653 114.972 23.48C115.244 23.3893 115.521 23.336 115.804 23.32C116.087 23.2987 116.359 23.312 116.62 23.36V24.928C116.337 24.8533 116.023 24.832 115.676 24.864C115.335 24.896 115.02 25.0053 114.732 25.192C114.46 25.368 114.244 25.5813 114.084 25.832C113.929 26.0827 113.817 26.3627 113.748 26.672C113.679 26.976 113.644 27.2987 113.644 27.64V32H111.956Z" fill="#F84646"/>
<path d="M130 26H141" stroke="#F84646" stroke-width="2" stroke-linecap="round" stroke-linejoin="round"/>
<path d="M136.5 21.5L141 26L136.5 30.5" stroke="#F84646" stroke-width="2" stroke-linecap="round" stroke-linejoin="round"/>
</svg>
